<svg width="16" height="16" viewBox="0 0 16 16" fill="none" xmlns="http://www.w3.org/2000/svg">
<path d="M12.7728 2.37086C11.0907 0.688717 8.35138 0.688717 6.67103 2.37086L2.01031 7.028C1.97996 7.05836 1.96388 7.09943 1.96388 7.14229C1.96388 7.18515 1.97996 7.22622 2.01031 7.25658L2.66924 7.9155C2.69936 7.94549 2.74013 7.96233 2.78263 7.96233C2.82514 7.96233 2.86591 7.94549 2.89603 7.9155L7.55674 3.25836C8.13531 2.67979 8.90496 2.36193 9.72281 2.36193C10.5407 2.36193 11.3103 2.67979 11.8871 3.25836C12.4657 3.83693 12.7835 4.60657 12.7835 5.42265C12.7835 6.2405 12.4657 7.00836 11.8871 7.58693L7.1371 12.3351L6.36746 13.1048C5.64781 13.8244 4.47817 13.8244 3.75853 13.1048C3.41031 12.7566 3.21924 12.2941 3.21924 11.8012C3.21924 11.3084 3.41031 10.8459 3.75853 10.4976L8.47103 5.78693C8.59067 5.66907 8.74781 5.603 8.91567 5.603H8.91746C9.08531 5.603 9.24067 5.66907 9.35853 5.78693C9.47817 5.90657 9.54246 6.06372 9.54246 6.23157C9.54246 6.39765 9.47638 6.55479 9.35853 6.67265L5.50674 10.5209C5.47638 10.5512 5.46031 10.5923 5.46031 10.6351C5.46031 10.678 5.47638 10.7191 5.50674 10.7494L6.16567 11.4084C6.19579 11.4383 6.23656 11.4552 6.27906 11.4552C6.32156 11.4552 6.36234 11.4383 6.39246 11.4084L10.2425 7.55836C10.5978 7.203 10.7925 6.73158 10.7925 6.22979C10.7925 5.728 10.596 5.25479 10.2425 4.90122C9.50853 4.16729 8.31567 4.16907 7.58174 4.90122L7.1246 5.36015L2.87103 9.61193C2.58233 9.89893 2.35349 10.2404 2.19777 10.6165C2.04205 10.9926 1.96255 11.3959 1.96388 11.803C1.96388 12.6298 2.2871 13.4066 2.87103 13.9905C3.47638 14.5941 4.26924 14.8959 5.0621 14.8959C5.85496 14.8959 6.64781 14.5941 7.25138 13.9905L12.7728 8.47265C13.5853 7.65836 14.0353 6.57443 14.0353 5.42265C14.0371 4.26907 13.5871 3.18515 12.7728 2.37086Z" fill="black" fill-opacity="0.45"/>
</svg>
